<mxfile host="app.diagrams.net" agent="Mozilla/5.0 (Windows NT 10.0; Win64; x64) AppleWebKit/537.36 (KHTML, like Gecko) Chrome/128.0.0.0 Safari/537.36" version="24.7.7">
  <diagram name="Página-1" id="VfPZrtI-95Eq45-_cqF9">
    <mxGraphModel dx="2424" dy="1019" grid="1" gridSize="10" guides="1" tooltips="1" connect="1" arrows="1" fold="1" page="1" pageScale="1" pageWidth="827" pageHeight="1169" math="0" shadow="0">
      <root>
        <mxCell id="0" />
        <mxCell id="1" parent="0" />
        <mxCell id="VVUEWYeaHn3VKLHuGVXk-3" style="edgeStyle=orthogonalEdgeStyle;rounded=0;orthogonalLoop=1;jettySize=auto;html=1;entryX=0.5;entryY=0;entryDx=0;entryDy=0;" edge="1" parent="1" source="VVUEWYeaHn3VKLHuGVXk-1" target="VVUEWYeaHn3VKLHuGVXk-2">
          <mxGeometry relative="1" as="geometry" />
        </mxCell>
        <mxCell id="VVUEWYeaHn3VKLHuGVXk-1" value="INÍCIO" style="ellipse;whiteSpace=wrap;html=1;" vertex="1" parent="1">
          <mxGeometry x="-110" y="140" width="120" height="80" as="geometry" />
        </mxCell>
        <mxCell id="VVUEWYeaHn3VKLHuGVXk-5" style="edgeStyle=orthogonalEdgeStyle;rounded=0;orthogonalLoop=1;jettySize=auto;html=1;entryX=0.5;entryY=0;entryDx=0;entryDy=0;" edge="1" parent="1" source="VVUEWYeaHn3VKLHuGVXk-2" target="VVUEWYeaHn3VKLHuGVXk-4">
          <mxGeometry relative="1" as="geometry" />
        </mxCell>
        <mxCell id="VVUEWYeaHn3VKLHuGVXk-2" value="&lt;h1&gt;Declaração de Varíaveis&lt;/h1&gt;&lt;div style=&quot;text-align: left;&quot;&gt;&lt;div&gt;int N,i,min_index,max_index,continuar;&lt;/div&gt;&lt;div&gt;float notas[Total_Max_Notas],nota,min,max,total_teste,totais_testes[Total_Max_Testes];&lt;/div&gt;&lt;/div&gt;&lt;div&gt;&lt;br&gt;&lt;/div&gt;&lt;div&gt;&lt;br&gt;&lt;/div&gt;" style="rounded=1;whiteSpace=wrap;html=1;" vertex="1" parent="1">
          <mxGeometry x="-400" y="280" width="700" height="120" as="geometry" />
        </mxCell>
        <mxCell id="VVUEWYeaHn3VKLHuGVXk-6" style="edgeStyle=orthogonalEdgeStyle;rounded=0;orthogonalLoop=1;jettySize=auto;html=1;" edge="1" parent="1" source="VVUEWYeaHn3VKLHuGVXk-4">
          <mxGeometry relative="1" as="geometry">
            <mxPoint x="-50" y="600" as="targetPoint" />
          </mxGeometry>
        </mxCell>
        <mxCell id="VVUEWYeaHn3VKLHuGVXk-4" value="Total_Max_Teste= 0&lt;br&gt;min_index=max_index=-1" style="rounded=0;whiteSpace=wrap;html=1;" vertex="1" parent="1">
          <mxGeometry x="-135" y="460" width="170" height="60" as="geometry" />
        </mxCell>
        <mxCell id="VVUEWYeaHn3VKLHuGVXk-9" style="edgeStyle=orthogonalEdgeStyle;rounded=0;orthogonalLoop=1;jettySize=auto;html=1;entryX=0.5;entryY=0;entryDx=0;entryDy=0;" edge="1" parent="1" source="VVUEWYeaHn3VKLHuGVXk-7" target="VVUEWYeaHn3VKLHuGVXk-8">
          <mxGeometry relative="1" as="geometry" />
        </mxCell>
        <mxCell id="VVUEWYeaHn3VKLHuGVXk-7" value="Solicitar a quantidade de Notas" style="shape=parallelogram;perimeter=parallelogramPerimeter;whiteSpace=wrap;html=1;fixedSize=1;" vertex="1" parent="1">
          <mxGeometry x="-150" y="590" width="200" height="80" as="geometry" />
        </mxCell>
        <mxCell id="VVUEWYeaHn3VKLHuGVXk-17" style="edgeStyle=orthogonalEdgeStyle;rounded=0;orthogonalLoop=1;jettySize=auto;html=1;" edge="1" parent="1" source="VVUEWYeaHn3VKLHuGVXk-8">
          <mxGeometry relative="1" as="geometry">
            <mxPoint x="160" y="800" as="targetPoint" />
          </mxGeometry>
        </mxCell>
        <mxCell id="VVUEWYeaHn3VKLHuGVXk-8" value="Verificação se a quantidade de notas é maior que 2" style="rhombus;whiteSpace=wrap;html=1;" vertex="1" parent="1">
          <mxGeometry x="-145" y="720" width="190" height="160" as="geometry" />
        </mxCell>
        <mxCell id="VVUEWYeaHn3VKLHuGVXk-14" style="edgeStyle=orthogonalEdgeStyle;rounded=0;orthogonalLoop=1;jettySize=auto;html=1;entryX=0;entryY=0.5;entryDx=0;entryDy=0;" edge="1" parent="1" source="VVUEWYeaHn3VKLHuGVXk-11" target="VVUEWYeaHn3VKLHuGVXk-7">
          <mxGeometry relative="1" as="geometry" />
        </mxCell>
        <mxCell id="VVUEWYeaHn3VKLHuGVXk-11" value="Exibir mensagem de erro&lt;div&gt;&quot;quantidade deve ser maior que 2&quot;&lt;/div&gt;" style="strokeWidth=2;html=1;shape=mxgraph.flowchart.display;whiteSpace=wrap;" vertex="1" parent="1">
          <mxGeometry x="-380" y="575" width="170" height="110" as="geometry" />
        </mxCell>
        <mxCell id="VVUEWYeaHn3VKLHuGVXk-13" style="edgeStyle=orthogonalEdgeStyle;rounded=0;orthogonalLoop=1;jettySize=auto;html=1;entryX=0.5;entryY=1;entryDx=0;entryDy=0;entryPerimeter=0;" edge="1" parent="1" source="VVUEWYeaHn3VKLHuGVXk-8" target="VVUEWYeaHn3VKLHuGVXk-11">
          <mxGeometry relative="1" as="geometry" />
        </mxCell>
        <mxCell id="VVUEWYeaHn3VKLHuGVXk-15" value="SENÃO" style="text;html=1;align=center;verticalAlign=middle;whiteSpace=wrap;rounded=0;" vertex="1" parent="1">
          <mxGeometry x="-250" y="740" width="60" height="30" as="geometry" />
        </mxCell>
        <mxCell id="VVUEWYeaHn3VKLHuGVXk-16" value="SE SIM" style="text;html=1;align=center;verticalAlign=middle;whiteSpace=wrap;rounded=0;" vertex="1" parent="1">
          <mxGeometry x="60" y="720" width="60" height="30" as="geometry" />
        </mxCell>
        <mxCell id="VVUEWYeaHn3VKLHuGVXk-21" style="edgeStyle=orthogonalEdgeStyle;rounded=0;orthogonalLoop=1;jettySize=auto;html=1;" edge="1" parent="1" target="VVUEWYeaHn3VKLHuGVXk-20">
          <mxGeometry relative="1" as="geometry">
            <mxPoint x="140" y="950" as="targetPoint" />
            <mxPoint x="225" y="830" as="sourcePoint" />
            <Array as="points">
              <mxPoint x="226" y="830" />
              <mxPoint x="226" y="900" />
              <mxPoint x="-50" y="900" />
              <mxPoint x="-50" y="996" />
            </Array>
          </mxGeometry>
        </mxCell>
        <mxCell id="VVUEWYeaHn3VKLHuGVXk-18" value="Inicia o contador das notas a serem lidas" style="rounded=0;whiteSpace=wrap;html=1;" vertex="1" parent="1">
          <mxGeometry x="160" y="770" width="120" height="60" as="geometry" />
        </mxCell>
        <mxCell id="VVUEWYeaHn3VKLHuGVXk-24" style="edgeStyle=orthogonalEdgeStyle;rounded=0;orthogonalLoop=1;jettySize=auto;html=1;entryX=0;entryY=0.5;entryDx=0;entryDy=0;" edge="1" parent="1" source="VVUEWYeaHn3VKLHuGVXk-20" target="VVUEWYeaHn3VKLHuGVXk-23">
          <mxGeometry relative="1" as="geometry" />
        </mxCell>
        <mxCell id="VVUEWYeaHn3VKLHuGVXk-20" value="Pede ao usuário as notas que serão usadas no vetor" style="shape=parallelogram;perimeter=parallelogramPerimeter;whiteSpace=wrap;html=1;fixedSize=1;" vertex="1" parent="1">
          <mxGeometry x="-165" y="970" width="230" height="92" as="geometry" />
        </mxCell>
        <mxCell id="VVUEWYeaHn3VKLHuGVXk-27" style="edgeStyle=orthogonalEdgeStyle;rounded=0;orthogonalLoop=1;jettySize=auto;html=1;" edge="1" parent="1" source="VVUEWYeaHn3VKLHuGVXk-23">
          <mxGeometry relative="1" as="geometry">
            <mxPoint x="290" y="1120" as="targetPoint" />
          </mxGeometry>
        </mxCell>
        <mxCell id="VVUEWYeaHn3VKLHuGVXk-23" value="&lt;font style=&quot;font-size: 10px;&quot;&gt;Verifica nota&lt;/font&gt;&lt;div&gt;&lt;font style=&quot;font-size: 10px;&quot;&gt;&amp;nbsp;&amp;gt;= 0 e &amp;lt;=10&lt;/font&gt;&lt;/div&gt;" style="rhombus;whiteSpace=wrap;html=1;" vertex="1" parent="1">
          <mxGeometry x="150" y="958" width="116" height="116" as="geometry" />
        </mxCell>
        <mxCell id="VVUEWYeaHn3VKLHuGVXk-25" value="SE SIM" style="text;html=1;align=center;verticalAlign=middle;whiteSpace=wrap;rounded=0;" vertex="1" parent="1">
          <mxGeometry x="300" y="1032" width="60" height="30" as="geometry" />
        </mxCell>
        <mxCell id="VVUEWYeaHn3VKLHuGVXk-30" style="edgeStyle=orthogonalEdgeStyle;rounded=0;orthogonalLoop=1;jettySize=auto;html=1;entryX=0.25;entryY=1;entryDx=0;entryDy=0;" edge="1" parent="1" source="VVUEWYeaHn3VKLHuGVXk-29" target="VVUEWYeaHn3VKLHuGVXk-20">
          <mxGeometry relative="1" as="geometry">
            <mxPoint x="-50" y="1190" as="targetPoint" />
          </mxGeometry>
        </mxCell>
        <mxCell id="VVUEWYeaHn3VKLHuGVXk-33" style="edgeStyle=orthogonalEdgeStyle;rounded=0;orthogonalLoop=1;jettySize=auto;html=1;" edge="1" parent="1" source="VVUEWYeaHn3VKLHuGVXk-29">
          <mxGeometry relative="1" as="geometry">
            <mxPoint x="290" y="1390" as="targetPoint" />
          </mxGeometry>
        </mxCell>
        <mxCell id="VVUEWYeaHn3VKLHuGVXk-29" value="Verifica se a nota dos&lt;div&gt;vetores acabaram&lt;/div&gt;" style="rhombus;whiteSpace=wrap;html=1;" vertex="1" parent="1">
          <mxGeometry x="210" y="1120" width="160" height="160" as="geometry" />
        </mxCell>
        <mxCell id="VVUEWYeaHn3VKLHuGVXk-31" value="SENÃO" style="text;html=1;align=center;verticalAlign=middle;whiteSpace=wrap;rounded=0;" vertex="1" parent="1">
          <mxGeometry x="140" y="1080" width="60" height="30" as="geometry" />
        </mxCell>
        <mxCell id="VVUEWYeaHn3VKLHuGVXk-32" value="SENÃO" style="text;html=1;align=center;verticalAlign=middle;whiteSpace=wrap;rounded=0;" vertex="1" parent="1">
          <mxGeometry x="140" y="1210" width="60" height="30" as="geometry" />
        </mxCell>
        <mxCell id="VVUEWYeaHn3VKLHuGVXk-35" style="edgeStyle=orthogonalEdgeStyle;rounded=0;orthogonalLoop=1;jettySize=auto;html=1;" edge="1" parent="1" source="VVUEWYeaHn3VKLHuGVXk-34">
          <mxGeometry relative="1" as="geometry">
            <mxPoint x="280" y="1550" as="targetPoint" />
          </mxGeometry>
        </mxCell>
        <mxCell id="VVUEWYeaHn3VKLHuGVXk-34" value="Exibe as notas" style="strokeWidth=2;html=1;shape=mxgraph.flowchart.display;whiteSpace=wrap;" vertex="1" parent="1">
          <mxGeometry x="230" y="1390" width="100" height="60" as="geometry" />
        </mxCell>
        <mxCell id="VVUEWYeaHn3VKLHuGVXk-39" value="" style="edgeStyle=orthogonalEdgeStyle;rounded=0;orthogonalLoop=1;jettySize=auto;html=1;" edge="1" parent="1" source="VVUEWYeaHn3VKLHuGVXk-36">
          <mxGeometry relative="1" as="geometry">
            <mxPoint x="280.00000000000045" y="1700" as="targetPoint" />
          </mxGeometry>
        </mxCell>
        <mxCell id="VVUEWYeaHn3VKLHuGVXk-36" value="min=max=notas[0]" style="rounded=0;whiteSpace=wrap;html=1;" vertex="1" parent="1">
          <mxGeometry x="220" y="1550" width="120" height="60" as="geometry" />
        </mxCell>
        <mxCell id="VVUEWYeaHn3VKLHuGVXk-42" value="" style="edgeStyle=orthogonalEdgeStyle;rounded=0;orthogonalLoop=1;jettySize=auto;html=1;" edge="1" parent="1" source="VVUEWYeaHn3VKLHuGVXk-38" target="VVUEWYeaHn3VKLHuGVXk-41">
          <mxGeometry relative="1" as="geometry" />
        </mxCell>
        <mxCell id="VVUEWYeaHn3VKLHuGVXk-38" value="Procura no vetor a partir do primeiro valor qual será a maior e a menor nota dentre elas" style="rhombus;whiteSpace=wrap;html=1;rounded=0;" vertex="1" parent="1">
          <mxGeometry x="185" y="1700" width="190" height="190" as="geometry" />
        </mxCell>
        <mxCell id="VVUEWYeaHn3VKLHuGVXk-45" value="" style="edgeStyle=orthogonalEdgeStyle;rounded=0;orthogonalLoop=1;jettySize=auto;html=1;" edge="1" parent="1" source="VVUEWYeaHn3VKLHuGVXk-41" target="VVUEWYeaHn3VKLHuGVXk-44">
          <mxGeometry relative="1" as="geometry" />
        </mxCell>
        <mxCell id="VVUEWYeaHn3VKLHuGVXk-41" value="Havendo valor menor e maior, exclui-los" style="whiteSpace=wrap;html=1;rounded=0;" vertex="1" parent="1">
          <mxGeometry x="220" y="1990" width="120" height="60" as="geometry" />
        </mxCell>
        <mxCell id="VVUEWYeaHn3VKLHuGVXk-47" value="" style="edgeStyle=orthogonalEdgeStyle;rounded=0;orthogonalLoop=1;jettySize=auto;html=1;" edge="1" parent="1" source="VVUEWYeaHn3VKLHuGVXk-44" target="VVUEWYeaHn3VKLHuGVXk-46">
          <mxGeometry relative="1" as="geometry" />
        </mxCell>
        <mxCell id="VVUEWYeaHn3VKLHuGVXk-44" value="Novo vetor criado para as notas que sobraram&amp;nbsp;" style="whiteSpace=wrap;html=1;rounded=0;" vertex="1" parent="1">
          <mxGeometry x="220" y="2130" width="120" height="60" as="geometry" />
        </mxCell>
        <mxCell id="VVUEWYeaHn3VKLHuGVXk-49" value="" style="edgeStyle=orthogonalEdgeStyle;rounded=0;orthogonalLoop=1;jettySize=auto;html=1;" edge="1" parent="1" source="VVUEWYeaHn3VKLHuGVXk-46" target="VVUEWYeaHn3VKLHuGVXk-48">
          <mxGeometry relative="1" as="geometry" />
        </mxCell>
        <mxCell id="VVUEWYeaHn3VKLHuGVXk-46" value="Exibe quais as notas que sobraram para checagem das mesmas" style="whiteSpace=wrap;html=1;rounded=0;" vertex="1" parent="1">
          <mxGeometry x="220" y="2270" width="120" height="60" as="geometry" />
        </mxCell>
        <mxCell id="VVUEWYeaHn3VKLHuGVXk-52" value="" style="edgeStyle=orthogonalEdgeStyle;rounded=0;orthogonalLoop=1;jettySize=auto;html=1;" edge="1" parent="1" source="VVUEWYeaHn3VKLHuGVXk-48" target="VVUEWYeaHn3VKLHuGVXk-51">
          <mxGeometry relative="1" as="geometry" />
        </mxCell>
        <mxCell id="VVUEWYeaHn3VKLHuGVXk-48" value="Realiza a soma destas&amp;nbsp;" style="whiteSpace=wrap;html=1;rounded=0;" vertex="1" parent="1">
          <mxGeometry x="220" y="2410" width="120" height="60" as="geometry" />
        </mxCell>
        <mxCell id="VVUEWYeaHn3VKLHuGVXk-55" value="" style="edgeStyle=orthogonalEdgeStyle;rounded=0;orthogonalLoop=1;jettySize=auto;html=1;" edge="1" parent="1" source="VVUEWYeaHn3VKLHuGVXk-51" target="VVUEWYeaHn3VKLHuGVXk-54">
          <mxGeometry relative="1" as="geometry" />
        </mxCell>
        <mxCell id="VVUEWYeaHn3VKLHuGVXk-51" value="As notas então aparecem somadas para saber qual seria a nota efetiva" style="whiteSpace=wrap;html=1;rounded=0;" vertex="1" parent="1">
          <mxGeometry x="220" y="2550" width="120" height="60" as="geometry" />
        </mxCell>
        <mxCell id="VVUEWYeaHn3VKLHuGVXk-57" value="" style="edgeStyle=orthogonalEdgeStyle;rounded=0;orthogonalLoop=1;jettySize=auto;html=1;" edge="1" parent="1" source="VVUEWYeaHn3VKLHuGVXk-54" target="VVUEWYeaHn3VKLHuGVXk-56">
          <mxGeometry relative="1" as="geometry" />
        </mxCell>
        <mxCell id="VVUEWYeaHn3VKLHuGVXk-60" value="" style="edgeStyle=orthogonalEdgeStyle;rounded=0;orthogonalLoop=1;jettySize=auto;html=1;" edge="1" parent="1" source="VVUEWYeaHn3VKLHuGVXk-54" target="VVUEWYeaHn3VKLHuGVXk-59">
          <mxGeometry relative="1" as="geometry" />
        </mxCell>
        <mxCell id="VVUEWYeaHn3VKLHuGVXk-54" value="Permite ao usuario continuar&lt;div&gt;ou encerrar o programa, digitando&lt;/div&gt;&lt;div&gt;0 ou 1&lt;/div&gt;" style="rhombus;whiteSpace=wrap;html=1;rounded=0;" vertex="1" parent="1">
          <mxGeometry x="180" y="2690" width="200" height="200" as="geometry" />
        </mxCell>
        <mxCell id="VVUEWYeaHn3VKLHuGVXk-56" value="Se digitado 0, o programa finaliza" style="whiteSpace=wrap;html=1;rounded=0;" vertex="1" parent="1">
          <mxGeometry x="-60" y="2760" width="120" height="60" as="geometry" />
        </mxCell>
        <mxCell id="VVUEWYeaHn3VKLHuGVXk-61" style="edgeStyle=orthogonalEdgeStyle;rounded=0;orthogonalLoop=1;jettySize=auto;html=1;entryX=1;entryY=0.5;entryDx=0;entryDy=0;" edge="1" parent="1" target="VVUEWYeaHn3VKLHuGVXk-7">
          <mxGeometry relative="1" as="geometry">
            <mxPoint x="70" y="630" as="targetPoint" />
            <mxPoint x="599.9999999999998" y="2755" as="sourcePoint" />
            <Array as="points">
              <mxPoint x="600" y="1673" />
              <mxPoint x="540" y="1673" />
              <mxPoint x="540" y="630" />
            </Array>
          </mxGeometry>
        </mxCell>
        <mxCell id="VVUEWYeaHn3VKLHuGVXk-59" value="Se digitado 1, o programa volta ao primeiro loop, resetando as variáveis" style="whiteSpace=wrap;html=1;rounded=0;" vertex="1" parent="1">
          <mxGeometry x="500" y="2755" width="140" height="70" as="geometry" />
        </mxCell>
        <mxCell id="VVUEWYeaHn3VKLHuGVXk-72" style="edgeStyle=orthogonalEdgeStyle;rounded=0;orthogonalLoop=1;jettySize=auto;html=1;entryX=0.5;entryY=1;entryDx=0;entryDy=0;" edge="1" parent="1" source="VVUEWYeaHn3VKLHuGVXk-70" target="VVUEWYeaHn3VKLHuGVXk-20">
          <mxGeometry relative="1" as="geometry" />
        </mxCell>
        <mxCell id="VVUEWYeaHn3VKLHuGVXk-70" value="Exibir mensagem de erro&amp;nbsp; &quot;valor da nota deve ser &amp;gt;= 0 ou &amp;lt;= 10&quot;" style="strokeWidth=2;html=1;shape=mxgraph.flowchart.display;whiteSpace=wrap;" vertex="1" parent="1">
          <mxGeometry x="-66.67" y="1095" width="166.67" height="100" as="geometry" />
        </mxCell>
        <mxCell id="VVUEWYeaHn3VKLHuGVXk-71" style="edgeStyle=orthogonalEdgeStyle;rounded=0;orthogonalLoop=1;jettySize=auto;html=1;entryX=1;entryY=0.5;entryDx=0;entryDy=0;entryPerimeter=0;" edge="1" parent="1" source="VVUEWYeaHn3VKLHuGVXk-23" target="VVUEWYeaHn3VKLHuGVXk-70">
          <mxGeometry relative="1" as="geometry">
            <Array as="points">
              <mxPoint x="208" y="1080" />
              <mxPoint x="140" y="1080" />
              <mxPoint x="140" y="1145" />
            </Array>
          </mxGeometry>
        </mxCell>
      </root>
    </mxGraphModel>
  </diagram>
</mxfile>
